<?xml version="1.0" encoding="UTF-8"?>
<svg width="118px" height="76px" viewBox="0 0 118 76" version="1.1" xmlns="http://www.w3.org/2000/svg" xmlns:xlink="http://www.w3.org/1999/xlink">
    <title>5650260C-712A-40A1-9625-240D13168E4B</title>
    <g id="Landing" stroke="none" stroke-width="1" fill="none" fill-rule="evenodd">
        <g id="home-page" transform="translate(-817.000000, -1936.000000)">
            <g id="pricing" transform="translate(0.000000, 1794.000000)">
                <g id="switcher" transform="translate(602.000000, 142.000000)">
                    <g id="save" transform="translate(215.000000, 0.000000)">
                        <rect id="Rectangle" x="0" y="0" width="118" height="76"></rect>
                        <g id="Group-24" transform="translate(17.000000, 52.000000)" stroke="#1E8769" stroke-linecap="round" stroke-linejoin="round" stroke-width="2">
                            <path d="M13,0 C11,4.66666667 6.66666667,7.33333333 0,8" id="Path-4"></path>
                            <polyline id="Path-5" points="2 5 0 8 3 10"></polyline>
                        </g>
                        <path d="M11.6904224,47.720082 L12.0159533,47.7058598 C12.3359533,47.6845265 12.65062,47.6525265 12.9599533,47.6098598 C13.2692866,47.5671931 13.5732866,47.5245265 13.8719533,47.4818598 C14.49062,47.3538598 15.0879533,47.1831931 15.6639533,46.9698598 C16.60262,46.6071931 17.4132866,46.0311931 18.0959533,45.2418598 L18.0959533,45.2418598 L18.4159533,44.9218598 C18.45862,44.8791931 18.4959533,44.8258598 18.5279533,44.7618598 C18.5599533,44.6978598 18.5972866,44.6445265 18.6399533,44.6018598 C18.74662,44.4311931 18.8479533,44.2658598 18.9439533,44.1058598 C19.0399533,43.9458598 19.1412866,43.7805265 19.2479533,43.6098598 C19.4612866,43.2471931 19.5999533,42.8951931 19.6639533,42.5538598 C19.70662,42.4258598 19.7492866,42.2978598 19.7919533,42.1698598 C19.83462,42.0418598 19.8772866,41.9245265 19.9199533,41.8178598 C20.0052866,41.6045265 20.02662,41.3485265 19.9839533,41.0498598 L19.9839533,41.0498598 L19.9839533,40.8578598 C19.96262,40.7511931 19.9519533,40.6338598 19.9519533,40.5058598 C19.9519533,40.3778598 19.9412866,40.2498598 19.9199533,40.1218598 C19.9199533,39.9938598 19.91462,39.8658598 19.9039533,39.7378598 C19.8932866,39.6098598 19.8772866,39.4818598 19.8559533,39.3538598 C19.8132866,39.2471931 19.78662,39.1405265 19.7759533,39.0338598 C19.7652866,38.9271931 19.73862,38.8205265 19.6959533,38.7138598 C19.67462,38.6071931 19.65862,38.4951931 19.6479533,38.3778598 C19.6372866,38.2605265 19.61062,38.1485265 19.5679533,38.0418598 C19.5252866,37.8498598 19.46662,37.6631931 19.3919533,37.4818598 C19.3172866,37.3005265 19.2372866,37.1245265 19.1519533,36.9538598 C19.1092866,36.8685265 19.06662,36.7885265 19.0239533,36.7138598 C18.9812866,36.6391931 18.93862,36.5698598 18.8959533,36.5058598 C18.7892866,36.3565265 18.7572866,36.1645265 18.7999533,35.9298598 C18.84262,35.9085265 18.89062,35.8871931 18.9439533,35.8658598 L19.0199533,35.8338598 L19.0199533,35.8338598 L19.0879533,35.8018598 C19.1732866,35.7165265 19.2692866,35.6631931 19.3759533,35.6418598 C19.5892866,35.5138598 19.80262,35.4178598 20.0159533,35.3538598 L20.0159533,35.3538598 L20.3359533,35.2258598 C20.44262,35.1831931 20.5492866,35.1298598 20.6559533,35.0658598 C20.8479533,34.9591931 21.0399533,34.8525265 21.2319533,34.7458598 C21.4239533,34.6391931 21.6052866,34.5325265 21.7759533,34.4258598 C21.9679533,34.3191931 22.1599533,34.2071931 22.3519533,34.0898598 C22.5439533,33.9725265 22.7359533,33.8498598 22.9279533,33.7218598 C23.1412866,33.5938598 23.35462,33.4605265 23.5679533,33.3218598 C23.7812866,33.1831931 23.99462,33.0391931 24.2079533,32.8898598 L24.2079533,32.8898598 L24.5919533,32.6338598 C24.7199533,32.5485265 24.8479533,32.4525265 24.9759533,32.3458598 C25.1252866,32.0471931 25.13062,31.8125265 24.9919533,31.6418598 C24.8532866,31.4711931 24.5919533,31.4925265 24.2079533,31.7058598 C24.1652866,31.7271931 24.1279533,31.7485265 24.0959533,31.7698598 C24.0639533,31.7911931 24.02662,31.8125265 23.9839533,31.8338598 C23.9199533,31.8765265 23.8612866,31.9085265 23.8079533,31.9298598 C23.75462,31.9511931 23.6959533,31.9831931 23.6319533,32.0258598 C23.5892866,32.0685265 23.5359533,32.1005265 23.4719533,32.1218598 C23.4079533,32.1431931 23.35462,32.1751931 23.3119533,32.2178598 C23.2692866,32.2391931 23.2212866,32.2605265 23.1679533,32.2818598 C23.11462,32.3031931 23.06662,32.3245265 23.0239533,32.3458598 C22.93862,32.4098598 22.8532866,32.4525265 22.7679533,32.4738598 C22.4692866,32.6445265 22.1812866,32.8098598 21.9039533,32.9698598 C21.62662,33.1298598 21.33862,33.2845265 21.0399533,33.4338598 C20.7412866,33.5618598 20.4479533,33.6898598 20.1599533,33.8178598 L19.7239533,34.0098598 L19.7239533,34.0098598 L19.2799533,34.2018598 C19.1732866,34.2231931 19.08262,34.2445265 19.0079533,34.2658598 C18.9332866,34.2871931 18.8532866,34.3085265 18.7679533,34.3298598 C18.68262,34.3725265 18.60262,34.4045265 18.5279533,34.4258598 C18.4532866,34.4471931 18.36262,34.4791931 18.2559533,34.5218598 C18.2132866,34.4791931 18.18662,34.4365265 18.1759533,34.3938598 C18.1652866,34.3511931 18.13862,34.3085265 18.0959533,34.2658598 C18.07462,34.2231931 18.0532866,34.1911931 18.0319533,34.1698598 C18.01062,34.1485265 17.9892866,34.1165265 17.9679533,34.0738598 C17.7972866,33.8178598 17.62662,33.5725265 17.4559533,33.3378598 C17.2852866,33.1031931 17.0932866,32.8898598 16.8799533,32.6978598 C16.53862,32.3351931 16.1972866,31.9671931 15.8559533,31.5938598 C15.51462,31.2205265 15.1839533,30.8418598 14.8639533,30.4578598 C14.1172866,29.5618598 13.37062,28.6925265 12.6239533,27.8498598 C11.8772866,27.0071931 11.16262,26.1271931 10.4799533,25.2098598 C10.3092866,24.9751931 10.1279533,24.7405265 9.93595331,24.5058598 C9.74395331,24.2711931 9.59461997,24.0151931 9.48795331,23.7378598 C9.33861997,23.3751931 9.26395331,23.0445265 9.26395331,22.7458598 C9.22128664,22.4471931 9.20528664,22.1538598 9.21595331,21.8658598 C9.22661997,21.5778598 9.23195331,21.2845265 9.23195331,20.9858598 C9.27461997,20.5165265 9.33861997,20.0791931 9.42395331,19.6738598 C9.46661997,19.5245265 9.51995331,19.3858598 9.58395331,19.2578598 C9.64795331,19.1298598 9.72261997,19.0125265 9.80795331,18.9058598 C9.91461997,18.7351931 10.0372866,18.5858598 10.1759533,18.4578598 C10.31462,18.3298598 10.45862,18.2018598 10.6079533,18.0738598 C10.7572866,17.9245265 10.9012866,17.7858598 11.0399533,17.6578598 C11.17862,17.5298598 11.3332866,17.4125265 11.5039533,17.3058598 C11.8452866,17.1138598 12.1972866,16.9378598 12.5599533,16.7778598 C12.92262,16.6178598 13.2959533,16.4845265 13.6799533,16.3778598 C13.85062,16.3351931 14.01062,16.2871931 14.1599533,16.2338598 C14.3092866,16.1805265 14.4692866,16.1325265 14.6399533,16.0898598 C15.00262,16.0045265 15.3599533,15.9298598 15.7119533,15.8658598 C16.0639533,15.8018598 16.4212866,15.7485265 16.7839533,15.7058598 C16.89062,15.6845265 16.9972866,15.6738598 17.1039533,15.6738598 L17.1039533,15.6738598 L17.4239533,15.6738598 C17.72262,15.6738598 17.9892866,15.7378598 18.2239533,15.8658598 C18.45862,15.9938598 18.7039533,16.1218598 18.9599533,16.2498598 C19.2799533,16.4205265 19.4932866,16.7085265 19.5999533,17.1138598 C19.6639533,17.3485265 19.7332866,17.5778598 19.8079533,17.8018598 C19.88262,18.0258598 19.96262,18.2551931 20.0479533,18.4898598 C20.09062,18.6605265 20.1119533,18.7885265 20.1119533,18.8738598 L20.1119533,18.8738598 L20.1119533,19.9778598 C20.1119533,20.3511931 20.0692866,20.7191931 19.9839533,21.0818598 C19.89862,21.4658598 19.8079533,21.8445265 19.7119533,22.2178598 C19.6159533,22.5911931 19.4932866,22.9591931 19.3439533,23.3218598 C19.2799533,23.4711931 19.2159533,23.6151931 19.1519533,23.7538598 C19.0879533,23.8925265 18.9812866,24.0151931 18.8319533,24.1218598 C18.7892866,24.1431931 18.7572866,24.1858598 18.7359533,24.2498598 C18.71462,24.3138598 18.7039533,24.3671931 18.7039533,24.4098598 C18.74662,24.5165265 18.8319533,24.5698598 18.9599533,24.5698598 C19.13062,24.6338598 19.3012866,24.5911931 19.4719533,24.4418598 C19.7919533,24.1645265 20.09062,23.7911931 20.3679533,23.3218598 C20.5172866,23.1085265 20.6452866,22.8898598 20.7519533,22.6658598 C20.85862,22.4418598 20.9332866,22.2018598 20.9759533,21.9458598 C21.01862,21.6471931 21.0612866,21.3378598 21.1039533,21.0178598 L21.1679533,20.5458598 L21.1679533,20.5458598 L21.2319533,20.0898598 C21.2532866,19.8338598 21.2639533,19.5831931 21.2639533,19.3378598 L21.2639533,19.3378598 L21.2639533,18.5858598 C21.24262,18.3511931 21.2212866,18.1058598 21.1999533,17.8498598 C21.17862,17.5938598 21.14662,17.3378598 21.1039533,17.0818598 C21.0612866,16.9111931 21.0132866,16.7618598 20.9599533,16.6338598 C20.90662,16.5058598 20.8479533,16.3671931 20.7839533,16.2178598 C20.6772866,15.9618598 20.5332866,15.7538598 20.3519533,15.5938598 C20.17062,15.4338598 19.9839533,15.2791931 19.7919533,15.1298598 C19.4932866,14.9378598 19.1999533,14.7618598 18.9119533,14.6018598 C18.6239533,14.4418598 18.29862,14.3298598 17.9359533,14.2658598 C17.5092866,14.1591931 17.0772866,14.0631931 16.6399533,13.9778598 C16.20262,13.8925265 15.7492866,13.8711931 15.2799533,13.9138598 C14.5972866,13.9565265 13.91462,14.0418598 13.2319533,14.1698598 C12.5492866,14.2978598 11.8879533,14.5111931 11.2479533,14.8098598 C10.2879533,15.2365265 9.42395331,15.7271931 8.65595331,16.2818598 C8.54928664,16.3458598 8.43728664,16.4098598 8.31995331,16.4738598 C8.20261997,16.5378598 8.07995331,16.5911931 7.95195331,16.6338598 C7.58928664,16.7618598 7.30661997,16.9911931 7.10395331,17.3218598 C6.90128664,17.6525265 6.71461997,17.9671931 6.54395331,18.2658598 C6.33061997,18.6285265 6.15995331,19.0551931 6.03195331,19.5458598 C5.90395331,20.0365265 5.78661997,20.4951931 5.67995331,20.9218598 C5.48795331,21.7538598 5.43461997,22.5858598 5.51995331,23.4178598 C5.58395331,23.8871931 5.70661997,24.3245265 5.88795331,24.7298598 C6.06928664,25.1351931 6.29328664,25.5245265 6.55995331,25.8978598 C6.82661997,26.2711931 7.11461997,26.6231931 7.42395331,26.9538598 C7.73328664,27.2845265 8.03728664,27.6205265 8.33595331,27.9618598 C8.74128664,28.4311931 9.14128664,28.8951931 9.53595331,29.3538598 C9.93061997,29.8125265 10.3412866,30.2765265 10.7679533,30.7458598 C11.3012866,31.3005265 11.81862,31.8711931 12.3199533,32.4578598 C12.8212866,33.0445265 13.24262,33.6898598 13.5839533,34.3938598 C13.69062,34.6285265 13.80262,34.8525265 13.9199533,35.0658598 C14.0372866,35.2791931 14.1599533,35.5031931 14.2879533,35.7378598 C14.2879533,35.7591931 14.2932866,35.7858598 14.3039533,35.8178598 C14.31462,35.8498598 14.3199533,35.8871931 14.3199533,35.9298598 C14.2772866,35.9511931 14.2559533,35.9618598 14.2559533,35.9618598 C14.23462,35.9618598 14.2239533,35.9725265 14.2239533,35.9938598 C14.2239533,36.0151931 14.1919533,36.0258598 14.1279533,36.0258598 C13.72262,36.2391931 13.3279533,36.4205265 12.9439533,36.5698598 C12.7519533,36.6765265 12.5599533,36.7671931 12.3679533,36.8418598 C12.1759533,36.9165265 11.9732866,37.0071931 11.7599533,37.1138598 C11.48262,37.2418598 11.2159533,37.3698598 10.9599533,37.4978598 L10.9599533,37.4978598 L10.1919533,37.8818598 C9.93595331,38.0098598 9.69061997,38.1591931 9.45595331,38.3298598 L9.45595331,38.3298598 L8.75195331,38.8418598 C8.17595331,39.2898598 7.65328664,39.8018598 7.18395331,40.3778598 C6.73595331,40.8898598 6.36261997,41.4978598 6.06395331,42.2018598 C5.99995331,42.3725265 5.94128664,42.5325265 5.88795331,42.6818598 C5.83461997,42.8311931 5.78661997,42.9805265 5.74395331,43.1298598 C5.67995331,43.3858598 5.66928664,43.7058598 5.71195331,44.0898598 C5.90395331,45.1565265 6.44795331,45.9351931 7.34395331,46.4258598 C7.49328664,46.5325265 7.64261997,46.6231931 7.79195331,46.6978598 C7.94128664,46.7725265 8.09061997,46.8525265 8.23995331,46.9378598 L8.23995331,46.9378598 L9.19995331,47.3218598 C10.0959533,47.6418598 11.03462,47.7698598 12.0159533,47.7058598 L11.6904224,47.720082 Z M12.2719533,46.2338598 C11.73862,46.4045265 11.2372866,46.4578598 10.7679533,46.3938598 C10.6612866,46.3938598 10.5599533,46.3885265 10.4639533,46.3778598 C10.3679533,46.3671931 10.26662,46.3511931 10.1599533,46.3298598 C9.98928664,46.3298598 9.79728664,46.2871931 9.58395331,46.2018598 C9.09328664,46.0951931 8.62395331,45.9351931 8.17595331,45.7218598 C7.66395331,45.5085265 7.36528664,45.1778598 7.27995331,44.7298598 C7.23728664,44.6231931 7.20528664,44.5218598 7.18395331,44.4258598 C7.16261997,44.3298598 7.13061997,44.2285265 7.08795331,44.1218598 C6.98128664,43.9298598 6.91728664,43.7271931 6.89595331,43.5138598 C6.85328664,43.2791931 6.86395331,43.0871931 6.92795331,42.9378598 C6.97061997,42.8525265 7.01861997,42.7671931 7.07195331,42.6818598 C7.12528664,42.5965265 7.17328664,42.5005265 7.21595331,42.3938598 C7.25861997,42.2871931 7.30661997,42.1911931 7.35995331,42.1058598 C7.41328664,42.0205265 7.47195331,41.9351931 7.53595331,41.8498598 C7.55728664,41.7858598 7.62128664,41.7005265 7.72795331,41.5938598 C7.77061997,41.5511931 7.85595331,41.4871931 7.98395331,41.4018598 C8.02661997,41.3591931 8.07461997,41.3058598 8.12795331,41.2418598 C8.18128664,41.1778598 8.22928664,41.1245265 8.27195331,41.0818598 C8.39995331,40.9965265 8.50661997,40.8898598 8.59195331,40.7618598 L8.59195331,40.7618598 L9.99995331,39.5778598 C10.04262,39.5351931 10.0852866,39.4978598 10.1279533,39.4658598 L10.1919533,39.4138598 L10.1919533,39.4138598 L10.2559533,39.3538598 C10.3412866,39.2685265 10.4372866,39.2045265 10.5439533,39.1618598 C10.6719533,39.0978598 10.79462,39.0391931 10.9119533,38.9858598 C11.0292866,38.9325265 11.1412866,38.8738598 11.2479533,38.8098598 C11.48262,38.6818598 11.7172866,38.5645265 11.9519533,38.4578598 C12.18662,38.3511931 12.4052866,38.2605265 12.6079533,38.1858598 C12.81062,38.1111931 13.01862,38.0205265 13.2319533,37.9138598 L13.2319533,37.9138598 L13.8719533,37.6578598 C14.0852866,37.5725265 14.3092866,37.4765265 14.5439533,37.3698598 C14.58662,37.3271931 14.6292866,37.3058598 14.6719533,37.3058598 C14.7359533,37.3058598 14.77862,37.2951931 14.7999533,37.2738598 C14.84262,37.2951931 14.8639533,37.3058598 14.8639533,37.3058598 C15.0559533,37.8178598 15.2692866,38.3085265 15.5039533,38.7778598 C15.7812866,39.2471931 15.96262,39.7271931 16.0479533,40.2178598 C16.1759533,40.6445265 16.21862,41.0605265 16.1759533,41.4658598 C16.1332866,41.9351931 16.05862,42.3511931 15.9519533,42.7138598 C15.8239533,43.3538598 15.5572866,43.9298598 15.1519533,44.4418598 C14.93862,44.6765265 14.71462,44.8898598 14.4799533,45.0818598 C14.2452866,45.2738598 13.97862,45.4551931 13.6799533,45.6258598 C13.4452866,45.7538598 13.21062,45.8658598 12.9759533,45.9618598 C12.7412866,46.0578598 12.50662,46.1485265 12.2719533,46.2338598 Z M29.8719533,40.5378598 C30.2559533,40.5805265 30.5759533,40.5591931 30.8319533,40.4738598 C31.3652866,40.2818598 31.8399533,39.9831931 32.2559533,39.5778598 C32.6719533,39.1725265 33.0452866,38.7138598 33.3759533,38.2018598 C33.70662,37.6898598 33.9999533,37.1618598 34.2559533,36.6178598 C34.5119533,36.0738598 34.74662,35.5565265 34.9599533,35.0658598 C35.00262,34.9591931 35.0719533,34.7938598 35.1679533,34.5698598 C35.2639533,34.3458598 35.3652866,34.1111931 35.4719533,33.8658598 C35.57862,33.6205265 35.6852866,33.3858598 35.7919533,33.1618598 C35.89862,32.9378598 35.9839533,32.7725265 36.0479533,32.6658598 C36.09062,32.5805265 36.1172866,32.4898598 36.1279533,32.3938598 C36.13862,32.2978598 36.15462,32.1965265 36.1759533,32.0898598 C36.1972866,31.9618598 36.1332866,31.8978598 35.9839533,31.8978598 C35.89862,31.9191931 35.8239533,31.9298598 35.7599533,31.9298598 C35.6959533,31.9298598 35.6319533,31.9405265 35.5679533,31.9618598 C35.4612866,31.9618598 35.4079533,32.0098598 35.4079533,32.1058598 C35.4079533,32.2018598 35.38662,32.2925265 35.3439533,32.3778598 C35.0879533,32.9111931 34.79462,33.5458598 34.4639533,34.2818598 C34.1332866,35.0178598 33.8399533,35.6525265 33.5839533,36.1858598 C33.4559533,36.4631931 33.27462,36.7778598 33.0399533,37.1298598 C32.8052866,37.4818598 32.60262,37.7751931 32.4319533,38.0098598 C32.34662,38.1165265 32.17062,38.2925265 31.9039533,38.5378598 C31.6372866,38.7831931 31.4399533,38.9378598 31.3119533,39.0018598 C31.0772866,39.1085265 30.9119533,39.1138598 30.8159533,39.0178598 C30.7199533,38.9218598 30.66662,38.7831931 30.6559533,38.6018598 C30.6452866,38.4205265 30.65062,38.2391931 30.6719533,38.0578598 C30.6932866,37.8765265 30.7039533,37.7538598 30.7039533,37.6898598 C30.7039533,37.5831931 30.7092866,37.4818598 30.7199533,37.3858598 C30.73062,37.2898598 30.74662,37.1885265 30.7679533,37.0818598 C30.81062,36.8258598 30.84262,36.5751931 30.8639533,36.3298598 C30.8852866,36.0845265 30.9172866,35.8445265 30.9599533,35.6098598 C30.9812866,35.4818598 31.00262,35.3591931 31.0239533,35.2418598 C31.0452866,35.1245265 31.0772866,35.0018598 31.1199533,34.8738598 C31.1839533,34.4898598 31.22662,34.1485265 31.2479533,33.8498598 C31.2692866,33.5511931 31.3119533,33.2098598 31.3759533,32.8258598 C31.4399533,32.4845265 31.5199533,32.1058598 31.6159533,31.6898598 C31.7119533,31.2738598 31.7599533,30.8951931 31.7599533,30.5538598 C31.7599533,30.4685265 31.7652866,30.3885265 31.7759533,30.3138598 C31.78662,30.2391931 31.7812866,30.1591931 31.7599533,30.0738598 C31.67462,29.9031931 31.67462,29.7485265 31.7599533,29.6098598 C31.8452866,29.4711931 31.86662,29.3165265 31.8239533,29.1458598 L31.8239533,29.1458598 L31.7279533,28.9538598 C31.6639533,28.7191931 31.5039533,28.6125265 31.2479533,28.6338598 C31.1412866,28.6551931 31.0399533,28.6711931 30.9439533,28.6818598 C30.8479533,28.6925265 30.74662,28.7191931 30.6399533,28.7618598 C30.3839533,28.7831931 30.20262,28.9645265 30.0959533,29.3058598 C30.0532866,29.5191931 29.99462,29.7218598 29.9199533,29.9138598 C29.8452866,30.1058598 29.7759533,30.3085265 29.7119533,30.5218598 C29.6479533,30.7138598 29.57862,30.9058598 29.5039533,31.0978598 C29.4292866,31.2898598 29.37062,31.4818598 29.3279533,31.6738598 C29.2852866,31.7805265 29.2532866,31.9031931 29.2319533,32.0418598 C29.21062,32.1805265 29.17862,32.3138598 29.1359533,32.4418598 C29.0932866,32.5698598 29.0612866,32.6978598 29.0399533,32.8258598 C29.01862,32.9538598 28.98662,33.0711931 28.9439533,33.1778598 C28.7519533,33.5191931 28.5012866,33.9245265 28.1919533,34.3938598 C27.88262,34.8631931 27.54662,35.1831931 27.1839533,35.3538598 C26.90662,35.4818598 26.5972866,35.4498598 26.2559533,35.2578598 C25.91462,35.0658598 25.7119533,34.8205265 25.6479533,34.5218598 C25.5199533,33.9885265 25.5039533,33.4765265 25.5999533,32.9858598 C25.6959533,32.4951931 25.8292866,31.9938598 25.9999533,31.4818598 C26.0852866,31.2685265 26.1599533,31.0551931 26.2239533,30.8418598 L26.3279533,30.5218598 L26.3279533,30.5218598 L26.4479533,30.2018598 C26.61862,29.7751931 26.77862,29.3325265 26.9279533,28.8738598 C27.0772866,28.4151931 27.2692866,27.9831931 27.5039533,27.5778598 C27.67462,27.3005265 27.8879533,27.0978598 28.1439533,26.9698598 C28.3999533,26.8418598 28.6772866,26.7458598 28.9759533,26.6818598 C29.3172866,26.5965265 29.6799533,26.6178598 30.0639533,26.7458598 L30.0639533,26.7458598 L30.1599533,26.8418598 C30.33062,27.0338598 30.49062,27.2205265 30.6399533,27.4018598 C30.7892866,27.5831931 30.8852866,27.8018598 30.9279533,28.0578598 C30.97062,28.1858598 31.03462,28.2391931 31.1199533,28.2178598 C31.2692866,28.2178598 31.3759533,28.1858598 31.4399533,28.1218598 C31.7172866,27.8658598 31.7599533,27.5565265 31.5679533,27.1938598 C31.5252866,27.0871931 31.46662,26.9858598 31.3919533,26.8898598 C31.3172866,26.7938598 31.2479533,26.6925265 31.1839533,26.5858598 C31.0772866,26.4578598 30.9652866,26.3458598 30.8479533,26.2498598 C30.73062,26.1538598 30.5972866,26.0951931 30.4479533,26.0738598 C30.2559533,26.0311931 30.0692866,26.0045265 29.8879533,25.9938598 C29.70662,25.9831931 29.5199533,26.0098598 29.3279533,26.0738598 C29.2639533,26.0951931 29.1679533,26.1058598 29.0399533,26.1058598 C28.8052866,26.1485265 28.5759533,26.1751931 28.3519533,26.1858598 C28.1279533,26.1965265 27.89862,26.2445265 27.6639533,26.3298598 L27.6639533,26.3298598 L26.8959533,26.6178598 C26.7039533,26.6818598 26.5172866,26.7671931 26.3359533,26.8738598 C26.15462,26.9805265 25.9999533,27.1191931 25.8719533,27.2898598 C25.7012866,27.5245265 25.53062,27.7271931 25.3599533,27.8978598 C24.82662,28.5165265 24.4532866,29.2098598 24.2399533,29.9778598 C24.1972866,30.1698598 24.13862,30.3618598 24.0639533,30.5538598 C23.9892866,30.7458598 23.9199533,30.9378598 23.8559533,31.1298598 L23.8559533,31.1298598 L23.5679533,32.0898598 C23.5252866,32.2605265 23.49862,32.4205265 23.4879533,32.5698598 C23.4772866,32.7191931 23.45062,32.8791931 23.4079533,33.0498598 C23.25862,33.7538598 23.2799533,34.4685265 23.4719533,35.1938598 C23.5572866,35.4925265 23.6639533,35.7271931 23.7919533,35.8978598 C24.02662,36.2391931 24.3039533,36.4631931 24.6239533,36.5698598 C24.9439533,36.6765265 25.2852866,36.7191931 25.6479533,36.6978598 C25.8399533,36.6765265 26.02662,36.6391931 26.2079533,36.5858598 C26.3892866,36.5325265 26.5759533,36.4951931 26.7679533,36.4738598 C27.06662,36.4525265 27.3279533,36.3725265 27.5519533,36.2338598 C27.7759533,36.0951931 27.9839533,35.9405265 28.1759533,35.7698598 C28.21862,35.7271931 28.2612866,35.6898598 28.3039533,35.6578598 L28.3679533,35.6058598 L28.3679533,35.6058598 L28.4319533,35.5458598 L28.4319533,35.8338598 C28.3892866,36.1325265 28.3572866,36.4311931 28.3359533,36.7298598 L28.3359533,36.7298598 L28.2719533,37.6258598 C28.25062,38.0098598 28.2612866,38.3885265 28.3039533,38.7618598 C28.34662,39.1351931 28.47462,39.4925265 28.6879533,39.8338598 C28.7519533,39.9831931 28.8479533,40.1005265 28.9759533,40.1858598 C29.1892866,40.3778598 29.4879533,40.4951931 29.8719533,40.5378598 Z M39.1519533,41.9938598 C39.5359533,42.0471931 39.8879533,41.9565265 40.2079533,41.7218598 C40.3359533,41.6151931 40.4692866,41.5298598 40.6079533,41.4658598 C40.74662,41.4018598 40.8692866,41.3165265 40.9759533,41.2098598 C40.9759533,41.1885265 40.98662,41.1778598 41.0079533,41.1778598 C41.1359533,41.1351931 41.2479533,41.0711931 41.3439533,40.9858598 C41.4399533,40.9005265 41.5412866,40.8258598 41.6479533,40.7618598 C41.7972866,40.6765265 41.9252866,40.5378598 42.0319533,40.3458598 C42.07462,40.2605265 42.1119533,40.1751931 42.1439533,40.0898598 C42.1759533,40.0045265 42.2132866,39.9085265 42.2559533,39.8018598 C42.5119533,39.3111931 42.76262,38.8151931 43.0079533,38.3138598 C43.2532866,37.8125265 43.4932866,37.3058598 43.7279533,36.7938598 C43.8132866,36.6231931 43.8612866,36.4418598 43.8719533,36.2498598 C43.88262,36.0578598 43.9412866,35.8765265 44.0479533,35.7058598 C44.09062,35.6205265 44.1012866,35.5458598 44.0799533,35.4818598 C44.0159533,35.2685265 44.0799533,35.0978598 44.2719533,34.9698598 C44.2932866,34.9698598 44.34662,34.9911931 44.4319533,35.0338598 C44.6239533,35.1191931 44.8159533,35.1991931 45.0079533,35.2738598 C45.1999533,35.3485265 45.40262,35.4178598 45.6159533,35.4818598 C45.7439533,35.5245265 45.8772866,35.5565265 46.0159533,35.5778598 C46.15462,35.5991931 46.29862,35.5991931 46.4479533,35.5778598 C46.81062,35.5138598 47.1732866,35.4231931 47.5359533,35.3058598 C47.89862,35.1885265 48.2399533,35.0338598 48.5599533,34.8418598 C48.6452866,34.7991931 48.7252866,34.7565265 48.7999533,34.7138598 C48.87462,34.6711931 48.9652866,34.6391931 49.0719533,34.6178598 C49.0932866,34.6178598 49.1252866,34.5965265 49.1679533,34.5538598 C49.33862,34.3831931 49.51462,34.2391931 49.6959533,34.1218598 C49.8772866,34.0045265 50.01062,33.8285265 50.0959533,33.5938598 C50.2239533,33.4871931 50.3199533,33.3645265 50.3839533,33.2258598 C50.4479533,33.0871931 50.5332866,32.9538598 50.6399533,32.8258598 C50.68262,32.7831931 50.7092866,32.7351931 50.7199533,32.6818598 C50.73062,32.6285265 50.7572866,32.5805265 50.7999533,32.5378598 C50.90662,32.4098598 50.9279533,32.2711931 50.8639533,32.1218598 C50.84262,32.0791931 50.8319533,32.0258598 50.8319533,31.9618598 C50.7892866,31.9405265 50.7572866,31.9298598 50.7359533,31.9298598 C50.71462,31.9298598 50.6932866,31.9191931 50.6719533,31.8978598 C50.52262,31.8125265 50.37862,31.7965265 50.2399533,31.8498598 C50.1012866,31.9031931 49.97862,32.0045265 49.8719533,32.1538598 C49.78662,32.3031931 49.6959533,32.4418598 49.5999533,32.5698598 C49.5039533,32.6978598 49.40262,32.8258598 49.2959533,32.9538598 C49.2532866,32.9965265 49.2212866,33.0391931 49.1999533,33.0818598 C49.11462,33.2525265 49.0132866,33.4018598 48.8959533,33.5298598 C48.77862,33.6578598 48.6559533,33.7751931 48.5279533,33.8818598 C48.0799533,34.3298598 47.5572866,34.6605265 46.9599533,34.8738598 C46.7679533,34.9378598 46.6079533,34.9165265 46.4799533,34.8098598 C46.2452866,34.6605265 46.02662,34.5111931 45.8239533,34.3618598 C45.6212866,34.2125265 45.46662,33.9991931 45.3599533,33.7218598 C45.33862,33.6791931 45.3119533,33.6365265 45.2799533,33.5938598 C45.2479533,33.5511931 45.21062,33.5085265 45.1679533,33.4658598 C44.9759533,33.2738598 44.8479533,33.0391931 44.7839533,32.7618598 C44.9972866,32.5058598 45.1252866,32.2071931 45.1679533,31.8658598 C45.21062,31.6525265 45.29062,31.4498598 45.4079533,31.2578598 C45.5252866,31.0658598 45.6159533,30.8631931 45.6799533,30.6498598 C45.72262,30.4791931 45.7599533,30.3031931 45.7919533,30.1218598 L45.8439533,29.8538598 L45.8439533,29.8538598 L45.9039533,29.5938598 C45.94662,29.4018598 46.0052866,29.2151931 46.0799533,29.0338598 C46.15462,28.8525265 46.20262,28.6551931 46.2239533,28.4418598 C46.2239533,28.1431931 46.18662,27.8285265 46.1119533,27.4978598 C46.0372866,27.1671931 45.91462,26.8738598 45.7439533,26.6178598 C45.6372866,26.4471931 45.5092866,26.3618598 45.3599533,26.3618598 C45.1892866,26.3618598 45.0239533,26.3458598 44.8639533,26.3138598 C44.7039533,26.2818598 44.53862,26.2765265 44.3679533,26.2978598 C44.21862,26.3191931 44.0692866,26.3191931 43.9199533,26.2978598 C43.70662,26.2978598 43.5359533,26.3725265 43.4079533,26.5218598 C43.32262,26.6285265 43.2372866,26.7405265 43.1519533,26.8578598 C43.06662,26.9751931 42.9919533,27.0978598 42.9279533,27.2258598 C42.7999533,27.4178598 42.69862,27.6205265 42.6239533,27.8338598 C42.5492866,28.0471931 42.49062,28.2711931 42.4479533,28.5058598 C42.4052866,28.6765265 42.36262,28.8578598 42.3199533,29.0498598 C42.2772866,29.2418598 42.2559533,29.4231931 42.2559533,29.5938598 C42.2559533,29.9565265 42.26662,30.3138598 42.2879533,30.6658598 C42.3092866,31.0178598 42.3412866,31.3751931 42.3839533,31.7378598 C42.4052866,32.0151931 42.49062,32.3351931 42.6399533,32.6978598 C42.74662,32.8898598 42.8479533,33.0765265 42.9439533,33.2578598 C43.0399533,33.4391931 43.1519533,33.6151931 43.2799533,33.7858598 C43.3439533,33.9351931 43.35462,34.0631931 43.3119533,34.1698598 C43.2692866,34.2978598 43.2319533,34.4258598 43.1999533,34.5538598 C43.1679533,34.6818598 43.13062,34.8098598 43.0879533,34.9378598 C42.9812866,35.2151931 42.89062,35.4818598 42.8159533,35.7378598 C42.7412866,35.9938598 42.6612866,36.2605265 42.5759533,36.5378598 C42.5332866,36.6871931 42.4852866,36.8365265 42.4319533,36.9858598 L42.3559533,37.2098598 L42.3559533,37.2098598 L42.2879533,37.4338598 C42.26662,37.4765265 42.25062,37.5298598 42.2399533,37.5938598 C42.2292866,37.6578598 42.2132866,37.7111931 42.1919533,37.7538598 C42.04262,38.0525265 41.9039533,38.3405265 41.7759533,38.6178598 C41.6479533,38.8951931 41.5092866,39.1831931 41.3599533,39.4818598 C41.27462,39.6525265 41.1892866,39.8338598 41.1039533,40.0258598 C41.01862,40.2178598 40.92262,40.4098598 40.8159533,40.6018598 C40.7732866,40.6871931 40.6879533,40.8151931 40.5599533,40.9858598 C40.5599533,41.0071931 40.50662,41.0391931 40.3999533,41.0818598 C40.3359533,41.0391931 40.3039533,40.9858598 40.3039533,40.9218598 L40.2979533,40.8758598 C40.2859533,40.8318598 40.2559533,40.7938598 40.2079533,40.7618598 C40.1012866,40.7191931 40.0319533,40.6551931 39.9999533,40.5698598 C39.9679533,40.4845265 39.93062,40.3885265 39.8879533,40.2818598 C39.86662,40.1965265 39.8399533,40.1218598 39.8079533,40.0578598 C39.7759533,39.9938598 39.7599533,39.9191931 39.7599533,39.8338598 C39.73862,39.7271931 39.73862,39.6365265 39.7599533,39.5618598 C39.7812866,39.4871931 39.80262,39.4071931 39.8239533,39.3218598 C39.8239533,39.1938598 39.8132866,39.0711931 39.7919533,38.9538598 C39.77062,38.8365265 39.73862,38.7245265 39.6959533,38.6178598 C39.5892866,38.2551931 39.53062,37.8765265 39.5199533,37.4818598 C39.5092866,37.0871931 39.48262,36.6978598 39.4399533,36.3138598 C39.3972866,35.9725265 39.3172866,35.6471931 39.1999533,35.3378598 C39.08262,35.0285265 39.00262,34.7138598 38.9599533,34.3938598 C38.8532866,33.7751931 38.7679533,33.1458598 38.7039533,32.5058598 C38.6399533,31.8658598 38.5652866,31.2365265 38.4799533,30.6178598 C38.4372866,30.3191931 38.4052866,30.0045265 38.3839533,29.6738598 C38.36262,29.3431931 38.29862,29.0391931 38.1919533,28.7618598 C38.04262,28.4845265 37.9572866,28.2285265 37.9359533,27.9938598 C37.91462,27.8231931 37.85062,27.6525265 37.7439533,27.4818598 C37.65862,27.3538598 37.5839533,27.2258598 37.5199533,27.0978598 C37.4559533,26.9698598 37.40262,26.8311931 37.3599533,26.6818598 C37.33862,26.5538598 37.2639533,26.4471931 37.1359533,26.3618598 C36.98662,26.2765265 36.89062,26.1271931 36.8479533,25.9138598 C36.82662,25.7218598 36.7092866,25.5938598 36.4959533,25.5298598 C36.1972866,25.4658598 35.89862,25.4338598 35.5999533,25.4338598 C35.4719533,25.3911931 35.3652866,25.4125265 35.2799533,25.4978598 C35.25862,25.7538598 35.25862,26.0205265 35.2799533,26.2978598 C35.32262,26.5538598 35.35462,26.8151931 35.3759533,27.0818598 C35.3972866,27.3485265 35.4079533,27.6205265 35.4079533,27.8978598 L35.4079533,27.8978598 L35.4079533,29.1778598 C35.4079533,29.3271931 35.41862,29.4711931 35.4399533,29.6098598 C35.4612866,29.7485265 35.4719533,29.9031931 35.4719533,30.0738598 C35.4719533,30.5005265 35.4932866,30.9165265 35.5359533,31.3218598 C35.57862,31.7271931 35.61062,32.1431931 35.6319533,32.5698598 C35.6319533,32.9111931 35.6639533,33.2525265 35.7279533,33.5938598 C35.7279533,33.7218598 35.73862,33.8445265 35.7599533,33.9618598 C35.7812866,34.0791931 35.80262,34.2018598 35.8239533,34.3298598 C35.9092866,34.6711931 35.97862,35.0125265 36.0319533,35.3538598 C36.0852866,35.6951931 36.1652866,36.0365265 36.2719533,36.3778598 C36.31462,36.4418598 36.3359533,36.5111931 36.3359533,36.5858598 C36.3359533,36.6605265 36.34662,36.7405265 36.3679533,36.8258598 C36.3679533,36.9325265 36.37862,37.0071931 36.3999533,37.0498598 C36.50662,37.3485265 36.5812866,37.6631931 36.6239533,37.9938598 C36.66662,38.3245265 36.7412866,38.6391931 36.8479533,38.9378598 C36.8479533,38.9805265 36.85862,39.0125265 36.8799533,39.0338598 L36.8799533,39.0338598 L37.0079533,39.6098598 C37.05062,39.8018598 37.11462,39.9831931 37.1999533,40.1538598 C37.3919533,40.6871931 37.72262,41.1565265 38.1919533,41.5618598 C38.4479533,41.7965265 38.7679533,41.9405265 39.1519533,41.9938598 Z M44.2079533,30.8098598 C44.12262,30.8098598 44.0692866,30.7778598 44.0479533,30.7138598 L44.0479533,30.7138598 L44.0479533,29.3858598 C44.0479533,29.2045265 44.02662,29.0285265 43.9839533,28.8578598 C43.96262,28.6445265 43.9679533,28.4471931 43.9999533,28.2658598 C44.0319533,28.0845265 44.1012866,27.9085265 44.2079533,27.7378598 C44.2932866,27.6311931 44.3359533,27.4818598 44.3359533,27.2898598 C44.3359533,27.2045265 44.3999533,27.1405265 44.5279533,27.0978598 C44.7412866,27.4391931 44.79462,27.7805265 44.6879533,28.1218598 C44.6452866,28.2711931 44.61862,28.4151931 44.6079533,28.5538598 C44.5972866,28.6925265 44.5812866,28.8365265 44.5599533,28.9858598 C44.5599533,29.0925265 44.55462,29.2098598 44.5439533,29.3378598 C44.5332866,29.4658598 44.5279533,29.5831931 44.5279533,29.6898598 C44.50662,29.7325265 44.4959533,29.7805265 44.4959533,29.8338598 C44.4959533,29.8871931 44.4852866,29.9351931 44.4639533,29.9778598 C44.4212866,30.0845265 44.39462,30.1805265 44.3839533,30.2658598 C44.3732866,30.3511931 44.34662,30.4471931 44.3039533,30.5538598 C44.2612866,30.6818598 44.2292866,30.7671931 44.2079533,30.8098598 Z M52.0479533,40.5698598 C52.3892866,40.5911931 52.7092866,40.5538598 53.0079533,40.4578598 C53.30662,40.3618598 53.5892866,40.2338598 53.8559533,40.0738598 C54.12262,39.9138598 54.3839533,39.7325265 54.6399533,39.5298598 C54.8959533,39.3271931 55.1519533,39.1298598 55.4079533,38.9378598 C55.7279533,38.7031931 56.01062,38.4418598 56.2559533,38.1538598 C56.5012866,37.8658598 56.7252866,37.5618598 56.9279533,37.2418598 C57.13062,36.9218598 57.3279533,36.6018598 57.5199533,36.2818598 C57.7119533,35.9618598 57.9252866,35.6525265 58.1599533,35.3538598 C58.26662,35.2258598 58.34662,35.0871931 58.3999533,34.9378598 C58.4532866,34.7885265 58.5332866,34.6605265 58.6399533,34.5538598 C58.68262,34.3831931 58.7572866,34.2285265 58.8639533,34.0898598 C58.97062,33.9511931 59.0239533,33.7858598 59.0239533,33.5938598 C59.0239533,33.5511931 59.0452866,33.5085265 59.0879533,33.4658598 C59.25862,33.0605265 59.4612866,32.7085265 59.6959533,32.4098598 C59.73862,32.3671931 59.7812866,32.2818598 59.8239533,32.1538598 C59.7172866,32.0471931 59.6532866,31.9725265 59.6319533,31.9298598 C59.48262,31.9298598 59.3652866,32.0151931 59.2799533,32.1858598 C59.1092866,32.4205265 58.95462,32.6498598 58.8159533,32.8738598 C58.6772866,33.0978598 58.55462,33.3378598 58.4479533,33.5938598 C58.42662,33.6578598 58.3732866,33.7538598 58.2879533,33.8818598 C58.07462,34.2018598 57.8719533,34.5325265 57.6799533,34.8738598 C57.4879533,35.2151931 57.2639533,35.5351931 57.0079533,35.8338598 C56.9652866,35.8765265 56.9279533,35.9245265 56.8959533,35.9778598 C56.8639533,36.0311931 56.82662,36.0898598 56.7839533,36.1538598 C56.63462,36.4525265 56.4692866,36.7245265 56.2879533,36.9698598 C56.10662,37.2151931 55.9199533,37.4658598 55.7279533,37.7218598 C55.5999533,37.8711931 55.4612866,38.0098598 55.3119533,38.1378598 C55.1412866,38.2658598 54.9652866,38.3938598 54.7839533,38.5218598 C54.60262,38.6498598 54.4159533,38.7778598 54.2239533,38.9058598 C54.01062,39.0765265 53.7332866,39.2151931 53.3919533,39.3218598 C53.1999533,39.3645265 53.0612866,39.3538598 52.9759533,39.2898598 C52.69862,39.1831931 52.4852866,39.0231931 52.3359533,38.8098598 C52.0799533,38.4685265 51.9359533,38.0578598 51.9039533,37.5778598 C51.8719533,37.0978598 51.88262,36.6018598 51.9359533,36.0898598 C51.9892866,35.5778598 52.0532866,35.0658598 52.1279533,34.5538598 C52.20262,34.0418598 52.2399533,33.5831931 52.2399533,33.1778598 C52.2399533,33.1138598 52.2452866,33.0498598 52.2559533,32.9858598 C52.26662,32.9218598 52.28262,32.8471931 52.3039533,32.7618598 C52.3679533,32.5271931 52.4212866,32.3885265 52.4639533,32.3458598 C52.50662,32.3031931 52.6772866,32.2605265 52.9759533,32.2178598 C53.14662,32.1751931 53.32262,32.1218598 53.5039533,32.0578598 C53.6852866,31.9938598 53.8719533,31.9298598 54.0639533,31.8658598 C54.17062,31.8231931 54.2612866,31.7805265 54.3359533,31.7378598 C54.41062,31.6951931 54.49062,31.6525265 54.5759533,31.6098598 C54.6399533,31.6098598 54.6932866,31.5778598 54.7359533,31.5138598 C54.7999533,31.4285265 54.87462,31.3591931 54.9599533,31.3058598 C55.0452866,31.2525265 55.13062,31.2045265 55.2159533,31.1618598 C55.4932866,30.9485265 55.7439533,30.5911931 55.9679533,30.0898598 C56.1919533,29.5885265 56.33062,29.0711931 56.3839533,28.5378598 C56.4372866,28.0045265 56.3732866,27.5351931 56.1919533,27.1298598 C56.01062,26.7245265 55.6639533,26.5111931 55.1519533,26.4898598 C55.1092866,26.4898598 55.0772866,26.4845265 55.0559533,26.4738598 C55.03462,26.4631931 55.00262,26.4578598 54.9599533,26.4578598 C54.74662,26.4151931 54.5652866,26.3938598 54.4159533,26.3938598 C54.2452866,26.3511931 54.07462,26.3458598 53.9039533,26.3778598 C53.7332866,26.4098598 53.56262,26.4471931 53.3919533,26.4898598 C53.0932866,26.5325265 52.8052866,26.6071931 52.5279533,26.7138598 C52.25062,26.8205265 51.9732866,26.9485265 51.6959533,27.0978598 C51.61062,27.1405265 51.5359533,27.1938598 51.4719533,27.2578598 C51.3012866,27.4285265 51.1412866,27.6045265 50.9919533,27.7858598 C50.84262,27.9671931 50.7359533,28.1751931 50.6719533,28.4098598 C50.6719533,28.4311931 50.66662,28.4471931 50.6559533,28.4578598 C50.6452866,28.4685265 50.6399533,28.4845265 50.6399533,28.5058598 C50.5972866,28.6125265 50.5492866,28.7191931 50.4959533,28.8258598 C50.44262,28.9325265 50.36262,29.0391931 50.2559533,29.1458598 L50.2559533,29.1458598 L50.1279533,29.4018598 C49.9999533,29.7218598 49.8772866,30.0365265 49.7599533,30.3458598 C49.64262,30.6551931 49.5412866,30.9805265 49.4559533,31.3218598 C49.4132866,31.5991931 49.3652866,31.8658598 49.3119533,32.1218598 C49.25862,32.3778598 49.1999533,32.6338598 49.1359533,32.8898598 C49.11462,32.9538598 49.09862,33.0125265 49.0879533,33.0658598 C49.0772866,33.1191931 49.0719533,33.1778598 49.0719533,33.2418598 C49.05062,33.4978598 49.0292866,33.7591931 49.0079533,34.0258598 C48.98662,34.2925265 48.95462,34.5538598 48.9119533,34.8098598 C48.8692866,35.2365265 48.84262,35.6471931 48.8319533,36.0418598 C48.8212866,36.4365265 48.82662,36.8471931 48.8479533,37.2738598 C48.89062,38.0205265 49.1039533,38.6818598 49.4879533,39.2578598 C49.6372866,39.4498598 49.7972866,39.6151931 49.9679533,39.7538598 C50.13862,39.8925265 50.3199533,40.0258598 50.5119533,40.1538598 C50.5972866,40.1965265 50.6399533,40.2178598 50.6399533,40.2178598 C50.87462,40.2818598 51.1092866,40.3511931 51.3439533,40.4258598 C51.57862,40.5005265 51.8132866,40.5485265 52.0479533,40.5698598 Z M52.4959533,31.5138598 C52.4532866,31.4071931 52.44262,31.3165265 52.4639533,31.2418598 C52.4852866,31.1671931 52.5172866,31.0765265 52.5599533,30.9698598 C52.60262,30.8418598 52.63462,30.7138598 52.6559533,30.5858598 C52.6772866,30.4578598 52.69862,30.3191931 52.7199533,30.1698598 C52.76262,29.9991931 52.79462,29.8178598 52.8159533,29.6258598 C52.8372866,29.4338598 52.89062,29.2525265 52.9759533,29.0818598 C53.0399533,28.9965265 53.0719533,28.8898598 53.0719533,28.7618598 C53.0932866,28.5485265 53.1412866,28.3511931 53.2159533,28.1698598 C53.29062,27.9885265 53.3599533,27.8125265 53.4239533,27.6418598 C53.53062,27.3218598 53.7759533,27.1298598 54.1599533,27.0658598 C54.39462,27.0231931 54.60262,27.0445265 54.7839533,27.1298598 C54.9652866,27.2151931 55.1412866,27.3431931 55.3119533,27.5138598 C55.3759533,27.5565265 55.4079533,27.6098598 55.4079533,27.6738598 C55.4719533,27.8871931 55.57862,28.0791931 55.7279533,28.2498598 C55.70662,28.2925265 55.69062,28.3458598 55.6799533,28.4098598 C55.6692866,28.4738598 55.6532866,28.5271931 55.6319533,28.5698598 C55.5679533,28.7405265 55.54662,28.8898598 55.5679533,29.0178598 C55.61062,29.0818598 55.5999533,29.1671931 55.5359533,29.2738598 C55.4079533,29.4871931 55.2852866,29.6898598 55.1679533,29.8818598 C55.05062,30.0738598 54.9172866,30.2658598 54.7679533,30.4578598 C54.5972866,30.7138598 54.3412866,30.9271931 53.9999533,31.0978598 C53.5519533,31.3111931 53.05062,31.4498598 52.4959533,31.5138598 Z M69.5519533,42.1378598 C70.4479533,42.2658598 71.3759533,42.2445265 72.3359533,42.0738598 C72.8052866,41.9885265 73.2639533,41.8765265 73.7119533,41.7378598 C74.1599533,41.5991931 74.5972866,41.4445265 75.0239533,41.2738598 C75.2799533,41.1671931 75.5199533,41.0338598 75.7439533,40.8738598 C75.9679533,40.7138598 76.1332866,40.4951931 76.2399533,40.2178598 C76.28262,40.1111931 76.3679533,39.9725265 76.4959533,39.8018598 C76.6879533,39.4605265 76.8532866,39.1031931 76.9919533,38.7298598 C77.13062,38.3565265 77.2639533,37.9885265 77.3919533,37.6258598 C77.49862,37.3271931 77.5839533,37.0231931 77.6479533,36.7138598 C77.7119533,36.4045265 77.7652866,36.0898598 77.8079533,35.7698598 C77.91462,35.3005265 78.0159533,34.8365265 78.1119533,34.3778598 C78.2079533,33.9191931 78.2239533,33.4445265 78.1599533,32.9538598 C78.13862,32.8898598 78.1332866,32.8258598 78.1439533,32.7618598 C78.15462,32.6978598 78.1599533,32.6338598 78.1599533,32.5698598 C78.1812866,32.2925265 78.1439533,32.0258598 78.0479533,31.7698598 C77.9519533,31.5138598 77.88262,31.2578598 77.8399533,31.0018598 L77.8399533,31.0018598 L77.8399533,30.9698598 C77.6479533,30.6925265 77.4719533,30.4205265 77.3119533,30.1538598 C77.1519533,29.8871931 76.95462,29.6365265 76.7199533,29.4018598 C76.4212866,29.0818598 76.1012866,28.8045265 75.7599533,28.5698598 C75.41862,28.3351931 75.0559533,28.1218598 74.6719533,27.9298598 C74.3519533,27.8018598 74.04262,27.6631931 73.7439533,27.5138598 C73.91462,27.2151931 74.0959533,26.9485265 74.2879533,26.7138598 C74.4799533,26.4791931 74.61862,26.2125265 74.7039533,25.9138598 C74.7679533,25.6791931 74.8372866,25.4338598 74.9119533,25.1778598 C74.98662,24.9218598 75.0452866,24.6765265 75.0879533,24.4418598 C75.1732866,23.9511931 75.2052866,23.4711931 75.1839533,23.0018598 C75.16262,22.5325265 75.2052866,22.0631931 75.3119533,21.5938598 L75.3119533,21.5938598 L75.3119533,21.5298598 C75.2692866,21.3591931 75.24262,21.1831931 75.2319533,21.0018598 C75.2212866,20.8205265 75.19462,20.6445265 75.1519533,20.4738598 C74.9812866,19.6205265 74.68262,18.8418598 74.2559533,18.1378598 C74.1279533,17.9031931 73.9679533,17.7005265 73.7759533,17.5298598 C73.5839533,17.3591931 73.3599533,17.2205265 73.1039533,17.1138598 C72.1012866,16.7511931 71.1092866,16.6125265 70.1279533,16.6978598 C69.5519533,16.7618598 68.9972866,16.8951931 68.4639533,17.0978598 C67.93062,17.3005265 67.41862,17.5511931 66.9279533,17.8498598 C66.13862,18.3405265 65.5092866,18.9485265 65.0399533,19.6738598 C64.9332866,19.8018598 64.85862,19.9405265 64.8159533,20.0898598 C64.7732866,20.2391931 64.73062,20.3991931 64.6879533,20.5698598 C64.6452866,20.7405265 64.6932866,20.8791931 64.8319533,20.9858598 C64.97062,21.0925265 65.1252866,21.1031931 65.2959533,21.0178598 C65.3599533,20.9751931 65.4239533,20.9271931 65.4879533,20.8738598 C65.5519533,20.8205265 65.6052866,20.7725265 65.6479533,20.7298598 C65.7119533,20.6231931 65.77062,20.5218598 65.8239533,20.4258598 C65.8772866,20.3298598 65.9359533,20.2498598 65.9999533,20.1858598 C66.17062,20.0365265 66.3412866,19.8925265 66.5119533,19.7538598 C66.68262,19.6151931 66.8532866,19.4925265 67.0239533,19.3858598 C67.2159533,19.2791931 67.4132866,19.1831931 67.6159533,19.0978598 C67.81862,19.0125265 68.0052866,18.9165265 68.1759533,18.8098598 C68.53862,18.5751931 68.9119533,18.5005265 69.2959533,18.5858598 C69.5092866,18.6071931 69.72262,18.6071931 69.9359533,18.5858598 C70.1919533,18.5431931 70.4372866,18.5485265 70.6719533,18.6018598 C70.90662,18.6551931 71.1412866,18.7138598 71.3759533,18.7778598 C71.5039533,18.8205265 71.5999533,18.8738598 71.6639533,18.9378598 C71.9412866,19.2151931 72.1759533,19.4978598 72.3679533,19.7858598 C72.5599533,20.0738598 72.6452866,20.4311931 72.6239533,20.8578598 C72.60262,21.2205265 72.5812866,21.5778598 72.5599533,21.9298598 C72.53862,22.2818598 72.4852866,22.6285265 72.3999533,22.9698598 C72.2719533,23.4818598 72.07462,23.9458598 71.8079533,24.3618598 C71.5412866,24.7778598 71.1732866,25.1351931 70.7039533,25.4338598 C70.5332866,25.5405265 70.36262,25.6578598 70.1919533,25.7858598 C70.0212866,25.9138598 69.8612866,26.0631931 69.7119533,26.2338598 C69.6052866,26.3405265 69.4879533,26.4311931 69.3599533,26.5058598 C69.2319533,26.5805265 69.1039533,26.6498598 68.9759533,26.7138598 C68.89062,26.7778598 68.7999533,26.8311931 68.7039533,26.8738598 C68.6079533,26.9165265 68.50662,26.9591931 68.3999533,27.0018598 C68.18662,27.1085265 68.0692866,27.1938598 68.0479533,27.2578598 C68.02662,27.3218598 68.0372866,27.4925265 68.0799533,27.7698598 C68.1012866,27.8551931 68.1119533,27.9405265 68.1119533,28.0258598 C68.1119533,28.1111931 68.15462,28.1751931 68.2399533,28.2178598 C68.3679533,28.2818598 68.5172866,28.3351931 68.6879533,28.3778598 C68.79462,28.4205265 68.8852866,28.4578598 68.9599533,28.4898598 C69.03462,28.5218598 69.11462,28.5378598 69.1999533,28.5378598 C69.4132866,28.5805265 69.6212866,28.6231931 69.8239533,28.6658598 C70.02662,28.7085265 70.2239533,28.7085265 70.4159533,28.6658598 C70.7999533,28.6231931 71.17862,28.5965265 71.5519533,28.5858598 C71.9252866,28.5751931 72.2932866,28.5911931 72.6559533,28.6338598 C73.2532866,28.6978598 73.78662,28.9431931 74.2559533,29.3698598 C74.61862,29.7111931 74.89062,30.0898598 75.0719533,30.5058598 C75.2532866,30.9218598 75.3652866,31.3645265 75.4079533,31.8338598 C75.5359533,33.2845265 75.3332866,34.6391931 74.7999533,35.8978598 L74.7999533,35.8978598 L74.4159533,36.7298598 C74.2879533,37.0071931 74.13862,37.2631931 73.9679533,37.4978598 C73.75462,37.8605265 73.5039533,38.1751931 73.2159533,38.4418598 C72.9279533,38.7085265 72.63462,38.9698598 72.3359533,39.2258598 L72.3359533,39.2258598 L72.0479533,39.4178598 C70.8959533,39.8871931 69.7439533,39.9938598 68.5919533,39.7378598 C68.3572866,39.6951931 68.12262,39.6311931 67.8879533,39.5458598 C67.6532866,39.4605265 67.4399533,39.3538598 67.2479533,39.2258598 C66.8852866,38.9698598 66.5599533,38.6765265 66.2719533,38.3458598 C65.9839533,38.0151931 65.7759533,37.6258598 65.6479533,37.1778598 C65.5412866,36.8151931 65.4932866,36.4525265 65.5039533,36.0898598 C65.51462,35.7271931 65.6372866,35.3751931 65.8719533,35.0338598 C66.0212866,34.8205265 66.1492866,34.5751931 66.2559533,34.2978598 C66.36262,34.1271931 66.3412866,33.9778598 66.1919533,33.8498598 C66.0852866,33.7858598 65.9892866,33.7271931 65.9039533,33.6738598 C65.81862,33.6205265 65.72262,33.6258598 65.6159533,33.6898598 C65.08262,33.8818598 64.73062,34.2551931 64.5599533,34.8098598 C64.47462,35.0445265 64.3999533,35.2738598 64.3359533,35.4978598 C64.2719533,35.7218598 64.2292866,35.9618598 64.2079533,36.2178598 C64.12262,37.0071931 64.1919533,37.7325265 64.4159533,38.3938598 C64.6399533,39.0551931 65.05062,39.6525265 65.6479533,40.1858598 C65.8399533,40.3565265 66.0479533,40.5218598 66.2719533,40.6818598 C66.4959533,40.8418598 66.7252866,40.9965265 66.9599533,41.1458598 C67.7919533,41.6791931 68.6559533,42.0098598 69.5519533,42.1378598 Z M85.3279533,41.6898598 C85.6479533,41.6898598 85.9252866,41.6098598 86.1599533,41.4498598 C86.39462,41.2898598 86.6292866,41.1458598 86.8639533,41.0178598 C87.0132866,40.9325265 87.16262,40.8151931 87.3119533,40.6658598 C87.41862,40.5591931 87.5199533,40.4738598 87.6159533,40.4098598 C87.7119533,40.3458598 87.80262,40.2605265 87.8879533,40.1538598 C88.12262,39.8765265 88.3412866,39.5991931 88.5439533,39.3218598 C88.74662,39.0445265 88.9332866,38.7351931 89.1039533,38.3938598 C89.14662,38.3085265 89.1892866,38.2445265 89.2319533,38.2018598 C89.3812866,37.9458598 89.5252866,37.6845265 89.6639533,37.4178598 C89.80262,37.1511931 89.94662,36.8898598 90.0959533,36.6338598 C90.1812866,36.4845265 90.25062,36.3405265 90.3039533,36.2018598 C90.3572866,36.0631931 90.4159533,35.9298598 90.4799533,35.8018598 C90.71462,35.3325265 90.90662,34.8471931 91.0559533,34.3458598 C91.2052866,33.8445265 91.3439533,33.3485265 91.4719533,32.8578598 C91.5572866,32.5591931 91.6372866,32.2658598 91.7119533,31.9778598 C91.78662,31.6898598 91.8772866,31.4071931 91.9839533,31.1298598 C92.1119533,30.7885265 92.2132866,30.4525265 92.2879533,30.1218598 C92.36262,29.7911931 92.3679533,29.4445265 92.3039533,29.0818598 C92.28262,28.9538598 92.2772866,28.8205265 92.2879533,28.6818598 C92.29862,28.5431931 92.31462,28.4098598 92.3359533,28.2818598 C92.3359533,28.2391931 92.3412866,28.1911931 92.3519533,28.1378598 C92.36262,28.0845265 92.3572866,28.0365265 92.3359533,27.9938598 C92.25062,27.6311931 92.25062,27.2578598 92.3359533,26.8738598 C92.3999533,26.5965265 92.3892866,26.3298598 92.3039533,26.0738598 C92.2612866,25.9671931 92.23462,25.8551931 92.2239533,25.7378598 C92.2132866,25.6205265 92.1972866,25.5085265 92.1759533,25.4018598 C92.1119533,25.0605265 92.0532866,24.7191931 91.9999533,24.3778598 C91.94662,24.0365265 91.8772866,23.6951931 91.7919533,23.3538598 C91.7492866,23.1831931 91.70662,23.0231931 91.6639533,22.8738598 C91.6212866,22.7245265 91.5359533,22.5751931 91.4079533,22.4258598 C91.3012866,22.3405265 91.2372866,22.2445265 91.2159533,22.1378598 C91.00262,21.7325265 90.77862,21.3431931 90.5439533,20.9698598 C90.3092866,20.5965265 90.0212866,20.2605265 89.6799533,19.9618598 C89.6159533,19.9191931 89.56262,19.8658598 89.5199533,19.8018598 L89.5199533,19.8018598 L89.3919533,19.6098598 C89.2212866,19.4178598 89.0612866,19.2205265 88.9119533,19.0178598 C88.76262,18.8151931 88.60262,18.6285265 88.4319533,18.4578598 C88.1759533,18.2018598 87.88262,18.0365265 87.5519533,17.9618598 C87.2212866,17.8871931 86.87462,17.8498598 86.5119533,17.8498598 C86.0852866,17.8925265 85.6532866,17.9405265 85.2159533,17.9938598 C84.77862,18.0471931 84.34662,18.1591931 83.9199533,18.3298598 C83.5359533,18.4791931 83.21062,18.6765265 82.9439533,18.9218598 C82.6772866,19.1671931 82.42662,19.4391931 82.1919533,19.7378598 C82.0639533,19.9298598 81.9519533,20.1325265 81.8559533,20.3458598 C81.7599533,20.5591931 81.65862,20.7831931 81.5519533,21.0178598 C81.5092866,21.1245265 81.4612866,21.2418598 81.4079533,21.3698598 C81.35462,21.4978598 81.30662,21.6258598 81.2639533,21.7538598 C81.0719533,22.2445265 80.87462,22.7351931 80.6719533,23.2258598 L80.3719533,23.9618598 L80.3719533,23.9618598 L80.0799533,24.6978598 C79.80262,25.4445265 79.61062,26.1965265 79.5039533,26.9538598 C79.3972866,27.7111931 79.2372866,28.4631931 79.0239533,29.2098598 C78.87462,29.8925265 78.74662,30.6071931 78.6399533,31.3538598 C78.5972866,31.6738598 78.5652866,31.9991931 78.5439533,32.3298598 C78.52262,32.6605265 78.5119533,32.9965265 78.5119533,33.3378598 C78.5119533,33.6791931 78.5279533,34.0151931 78.5599533,34.3458598 C78.5919533,34.6765265 78.61862,35.0231931 78.6399533,35.3858598 C78.7039533,36.4098598 79.0132866,37.4125265 79.5679533,38.3938598 C79.86662,38.9485265 80.2292866,39.4391931 80.6559533,39.8658598 C81.08262,40.2925265 81.59462,40.6445265 82.1919533,40.9218598 C82.7039533,41.1351931 83.2159533,41.3165265 83.7279533,41.4658598 C84.2399533,41.6151931 84.7732866,41.6898598 85.3279533,41.6898598 Z M86.0959533,39.6738598 C85.9252866,39.6951931 85.75462,39.6845265 85.5839533,39.6418598 C84.8372866,39.5138598 84.2399533,39.1725265 83.7919533,38.6178598 C83.6212866,38.4045265 83.46662,38.1751931 83.3279533,37.9298598 C83.1892866,37.6845265 83.0879533,37.4125265 83.0239533,37.1138598 C82.9812866,36.9005265 82.9439533,36.6925265 82.9119533,36.4898598 C82.8799533,36.2871931 82.84262,36.0791931 82.7999533,35.8658598 C82.77862,35.8018598 82.7732866,35.7325265 82.7839533,35.6578598 C82.79462,35.5831931 82.7999533,35.5031931 82.7999533,35.4178598 C82.8212866,35.1831931 82.8372866,34.9485265 82.8479533,34.7138598 C82.85862,34.4791931 82.84262,34.2445265 82.7999533,34.0098598 C82.7572866,33.8178598 82.7412866,33.6205265 82.7519533,33.4178598 C82.76262,33.2151931 82.7679533,33.0071931 82.7679533,32.7938598 C82.7892866,32.6231931 82.7999533,32.4631931 82.7999533,32.3138598 C82.7999533,32.1645265 82.81062,32.0045265 82.8319533,31.8338598 C82.8532866,31.4925265 82.87462,31.1565265 82.8959533,30.8258598 C82.9172866,30.4951931 82.9492866,30.1485265 82.9919533,29.7858598 C83.03462,29.2951931 83.09862,28.7938598 83.1839533,28.2818598 C83.22662,27.8978598 83.2799533,27.5138598 83.3439533,27.1298598 C83.4079533,26.7458598 83.4612866,26.3618598 83.5039533,25.9778598 C83.54662,25.7431931 83.5679533,25.5031931 83.5679533,25.2578598 C83.5679533,25.0125265 83.5892866,24.7725265 83.6319533,24.5378598 C83.67462,24.1751931 83.69062,23.8178598 83.6799533,23.4658598 C83.6692866,23.1138598 83.67462,22.7565265 83.6959533,22.3938598 C83.7172866,21.9671931 83.7812866,21.5458598 83.8879533,21.1298598 C83.99462,20.7138598 84.1652866,20.3138598 84.3999533,19.9298598 C84.50662,19.7805265 84.6079533,19.6365265 84.7039533,19.4978598 C84.7999533,19.3591931 84.92262,19.2365265 85.0719533,19.1298598 C85.3492866,18.8951931 85.6372866,18.7725265 85.9359533,18.7618598 C86.23462,18.7511931 86.5439533,18.8098598 86.8639533,18.9378598 C87.2052866,19.0658598 87.5039533,19.2471931 87.7599533,19.4818598 C88.0159533,19.7165265 88.28262,19.9405265 88.5599533,20.1538598 C88.60262,20.1965265 88.6239533,20.2391931 88.6239533,20.2818598 C88.6239533,20.3245265 88.63462,20.3671931 88.6559533,20.4098598 C88.6772866,20.4951931 88.6879533,20.5751931 88.6879533,20.6498598 C88.6879533,20.7245265 88.7092866,20.7938598 88.7519533,20.8578598 C88.8159533,21.0285265 88.8799533,21.1831931 88.9439533,21.3218598 C89.0079533,21.4605265 89.0932866,21.5831931 89.1999533,21.6898598 C89.30662,21.7965265 89.3919533,21.9245265 89.4559533,22.0738598 C89.5199533,22.2231931 89.5839533,22.3618598 89.6479533,22.4898598 C89.8399533,22.9805265 90.0159533,23.4711931 90.1759533,23.9618598 C90.3359533,24.4525265 90.42662,24.9645265 90.4479533,25.4978598 C90.4692866,25.8391931 90.50662,26.1698598 90.5599533,26.4898598 C90.6132866,26.8098598 90.6612866,27.1298598 90.7039533,27.4498598 C90.7252866,27.5351931 90.7412866,27.6151931 90.7519533,27.6898598 C90.76262,27.7645265 90.7679533,27.8551931 90.7679533,27.9618598 C90.74662,28.0898598 90.7252866,28.2285265 90.7039533,28.3778598 C90.68262,28.5271931 90.6612866,28.6765265 90.6399533,28.8258598 C90.5972866,29.0178598 90.57062,29.2045265 90.5599533,29.3858598 C90.5492866,29.5671931 90.5332866,29.7538598 90.5119533,29.9458598 C90.49062,29.9885265 90.4852866,30.0418598 90.4959533,30.1058598 C90.50662,30.1698598 90.5012866,30.2231931 90.4799533,30.2658598 C90.3732866,30.6925265 90.2932866,31.1245265 90.2399533,31.5618598 C90.18662,31.9991931 90.07462,32.4311931 89.9039533,32.8578598 C89.7759533,33.1565265 89.6639533,33.4498598 89.5679533,33.7378598 C89.4719533,34.0258598 89.3812866,34.3191931 89.2959533,34.6178598 C89.1679533,35.1085265 88.9919533,35.5725265 88.7679533,36.0098598 C88.5439533,36.4471931 88.31462,36.8791931 88.0799533,37.3058598 C87.9732866,37.5191931 87.8612866,37.7325265 87.7439533,37.9458598 C87.62662,38.1591931 87.4932866,38.3618598 87.3439533,38.5538598 C87.1519533,38.8311931 86.8959533,39.1298598 86.5759533,39.4498598 C86.42662,39.5778598 86.26662,39.6525265 86.0959533,39.6738598 Z M95.5808283,42.1719848 L113.783953,17.8907348 L111.377703,17.8907348 L93.1589533,42.1719848 L95.5808283,42.1719848 Z M97.8152033,30.0313598 C99.3672866,30.0313598 100.586037,29.5131306 101.471453,28.4766723 C102.35687,27.440214 102.799578,26.0209431 102.799578,24.2188598 C102.799578,22.4584431 102.35687,21.0600056 101.471453,20.0235473 C100.586037,18.987089 99.3933283,18.4688598 97.8933283,18.4688598 C96.3829116,18.4688598 95.184995,18.987089 94.2995783,20.0235473 C93.4141616,21.0600056 92.9714533,22.4636515 92.9714533,24.2344848 C92.9714533,25.9949015 93.4115575,27.4011515 94.2917658,28.4532348 C95.1719741,29.5053181 96.3464533,30.0313598 97.8152033,30.0313598 Z M97.8620783,28.4844848 C97.0808283,28.4844848 96.4558283,28.0990681 95.9870783,27.3282348 C95.5183283,26.5574015 95.2839533,25.5261515 95.2839533,24.2344848 C95.2839533,22.9428181 95.5183283,21.9141723 95.9870783,21.1485473 C96.4558283,20.3829223 97.091245,20.0001098 97.8933283,20.0001098 C98.684995,20.0001098 99.3152033,20.3829223 99.7839533,21.1485473 C100.252703,21.9141723 100.487078,22.9376098 100.487078,24.2188598 C100.487078,27.0626098 99.6120783,28.4844848 97.8620783,28.4844848 Z M109.002703,41.5938598 C110.554787,41.5938598 111.773537,41.0782348 112.658953,40.0469848 C113.54437,39.0157348 113.987078,37.5938598 113.987078,35.7813598 C113.987078,34.0209431 113.541766,32.6225056 112.651141,31.5860473 C111.760516,30.549589 110.565203,30.0313598 109.065203,30.0313598 C107.565203,30.0313598 106.372495,30.5521931 105.487078,31.5938598 C104.601662,32.6355265 104.158953,34.0417765 104.158953,35.8126098 C104.158953,37.5730265 104.596453,38.9766723 105.471453,40.0235473 C106.346453,41.0704223 107.523537,41.5938598 109.002703,41.5938598 Z M109.033953,40.0469848 C108.252703,40.0469848 107.630307,39.6615681 107.166766,38.8907348 C106.703224,38.1199015 106.471453,37.0938598 106.471453,35.8126098 C106.471453,34.5105265 106.705828,33.4766723 107.174578,32.7110473 C107.643328,31.9454223 108.273537,31.5626098 109.065203,31.5626098 C109.85687,31.5626098 110.489682,31.9454223 110.963641,32.7110473 C111.437599,33.4766723 111.674578,34.5001098 111.674578,35.7813598 C111.674578,38.6251098 110.79437,40.0469848 109.033953,40.0469848 Z" id="Save30%" fill="#1E8769" fill-rule="nonzero" transform="translate(59.733823, 30.807193) rotate(10.000000) translate(-59.733823, -30.807193) "></path>
                    </g>
                </g>
            </g>
        </g>
    </g>
</svg>