<?xml version="1.0" encoding="UTF-8"?>
<svg width="24px" height="24px" viewBox="0 0 24 24" version="1.1" xmlns="http://www.w3.org/2000/svg" xmlns:xlink="http://www.w3.org/1999/xlink">
    <title>14AE4230-5239-4255-BA0F-F81239AA227C</title>
    <g id="Landing" stroke="none" stroke-width="1" fill="none" fill-rule="evenodd">
        <g id="blog-list" transform="translate(-181.000000, -949.000000)">
            <g id="search" transform="translate(165.000000, 934.000000)">
                <g id="search_icon" transform="translate(16.000000, 15.000000)">
                    <rect id="Rectangle" x="0" y="0" width="24" height="24"></rect>
                    <g id="search" transform="translate(4.000000, 4.000000)" fill="#020018" fill-rule="nonzero">
                        <path d="M7.0460625,0 C3.16096875,0 0,3.16096875 0,7.0460625 C0,10.931375 3.16096875,14.092125 7.0460625,14.092125 C10.931375,14.092125 14.092125,10.931375 14.092125,7.0460625 C14.092125,3.16096875 10.931375,0 7.0460625,0 Z M7.0460625,12.7913437 C3.87815625,12.7913437 1.3008125,10.214 1.3008125,7.04609375 C1.3008125,3.8781875 3.87815625,1.3008125 7.0460625,1.3008125 C10.2139687,1.3008125 12.7913125,3.87815625 12.7913125,7.0460625 C12.7913125,10.2139688 10.2139687,12.7913437 7.0460625,12.7913437 Z" id="Shape"></path>
                        <path d="M15.8094375,14.88975 L12.0804375,11.16075 C11.8263437,10.9066563 11.4148438,10.9066563 11.16075,11.16075 C10.9066563,11.414625 10.9066563,11.8265625 11.16075,12.0804375 L14.88975,15.8094375 C15.0167812,15.9364688 15.1830937,16 15.3495937,16 C15.515875,16 15.682375,15.9364687 15.8094375,15.8094375 C16.0635313,15.5555625 16.0635313,15.143625 15.8094375,14.88975 Z" id="Path"></path>
                    </g>
                </g>
            </g>
        </g>
    </g>
</svg>