<?xml version="1.0" encoding="UTF-8"?>
<svg width="16px" height="12px" viewBox="0 0 16 12" version="1.1" xmlns="http://www.w3.org/2000/svg" xmlns:xlink="http://www.w3.org/1999/xlink">
    <title>E641CEC2-5D0F-4EF3-873C-8ACBCB6853CB</title>
    <g id="Landing" stroke="none" stroke-width="1" fill="none" fill-rule="evenodd">
        <g id="home-page" transform="translate(-281.000000, -4402.000000)" fill="#929292" fill-rule="nonzero">
            <g id="recommended" transform="translate(0.000000, 3846.000000)">
                <g id="article4" transform="translate(165.000000, 234.000000)">
                    <g id="Group-2" transform="translate(0.000000, 320.000000)">
                        <g id="visibility-(1)-copy-3" transform="translate(116.000000, 2.000000)">
                            <path d="M7.9998742,-6.83897383e-14 C11.5755344,-6.83897383e-14 14.7796239,2.34618772 15.9730106,5.83838315 C16.008661,5.94336007 16.008661,6.05663993 15.9730106,6.16161685 C14.779653,9.65381228 11.5755634,12 7.9998742,12 C4.42418495,12 1.22009542,9.65381228 0.0267377609,6.16161685 C-0.00891258697,6.05663993 -0.00891258697,5.94336007 0.0267377609,5.83838315 C1.22009542,2.34618772 4.42418495,-6.83897383e-14 7.9998742,-6.83897383e-14 Z M7.9998742,1.00000968 C4.90709039,1.00000968 2.12732129,3.00243862 1.03014409,6.00000968 C2.12732129,8.99756138 4.90711942,10.9999903 7.9998742,10.9999903 C11.092629,10.9999903 13.8724271,8.99756138 14.9696043,6.00000968 C13.8724271,3.00243862 11.092629,1.00000968 7.9998742,1.00000968 Z M7.9998742,3 C9.65416066,3 10.9998742,4.34568451 10.9998742,6 C10.9998742,7.65431549 9.65416066,9 7.9998742,9 C6.34558774,9 4.9998742,7.65428646 4.9998742,6 C4.9998742,4.34571354 6.34558774,3 7.9998742,3 Z M7.99988388,4.00000968 C6.89686172,4.00000968 5.99988388,4.8969585 5.99988388,6.00000968 C5.99988388,7.10301247 6.89683269,7.99999032 7.99988388,7.99999032 C9.10288667,7.99999032 9.99986452,7.10301247 9.99986452,6.00000968 C9.99986452,4.89698753 9.1029157,4.00000968 7.99988388,4.00000968 Z" id="Combined-Shape"></path>
                        </g>
                    </g>
                </g>
            </g>
        </g>
    </g>
</svg>